<mxfile host="app.diagrams.net" modified="2024-02-03T17:18:36.336Z" agent="Mozilla/5.0 (X11; Linux x86_64; rv:122.0) Gecko/20100101 Firefox/122.0" etag="bLpw0WQrRW22uW14Yd5o" version="22.1.18" type="device">
  <diagram name="Page-1" id="kGrEgoYkW3PvrpysGW01">
    <mxGraphModel dx="1410" dy="727" grid="1" gridSize="10" guides="1" tooltips="1" connect="1" arrows="1" fold="1" page="1" pageScale="1" pageWidth="827" pageHeight="1169" math="0" shadow="0">
      <root>
        <mxCell id="0" />
        <mxCell id="1" parent="0" />
        <mxCell id="RpMTj5sblBRdrPI9AOIM-5" style="edgeStyle=orthogonalEdgeStyle;rounded=0;orthogonalLoop=1;jettySize=auto;html=1;exitX=1;exitY=0.5;exitDx=0;exitDy=0;entryX=0;entryY=0.5;entryDx=0;entryDy=0;curved=1;" parent="1" source="RpMTj5sblBRdrPI9AOIM-2" target="RpMTj5sblBRdrPI9AOIM-3" edge="1">
          <mxGeometry relative="1" as="geometry" />
        </mxCell>
        <mxCell id="RpMTj5sblBRdrPI9AOIM-6" value="affects" style="edgeLabel;html=1;align=center;verticalAlign=middle;resizable=0;points=[];fontStyle=2" parent="RpMTj5sblBRdrPI9AOIM-5" vertex="1" connectable="0">
          <mxGeometry x="0.175" y="-1" relative="1" as="geometry">
            <mxPoint x="9" y="-27" as="offset" />
          </mxGeometry>
        </mxCell>
        <mxCell id="RpMTj5sblBRdrPI9AOIM-10" style="edgeStyle=orthogonalEdgeStyle;rounded=0;orthogonalLoop=1;jettySize=auto;html=1;exitX=0;exitY=0.5;exitDx=0;exitDy=0;entryX=0.5;entryY=0;entryDx=0;entryDy=0;curved=1;" parent="1" source="RpMTj5sblBRdrPI9AOIM-2" target="RpMTj5sblBRdrPI9AOIM-4" edge="1">
          <mxGeometry relative="1" as="geometry" />
        </mxCell>
        <mxCell id="RpMTj5sblBRdrPI9AOIM-11" value="causes" style="edgeLabel;align=center;verticalAlign=middle;resizable=0;points=[];labelBorderColor=none;fontStyle=2" parent="RpMTj5sblBRdrPI9AOIM-10" vertex="1" connectable="0">
          <mxGeometry x="-0.06" y="2" relative="1" as="geometry">
            <mxPoint x="41" y="34" as="offset" />
          </mxGeometry>
        </mxCell>
        <mxCell id="RpMTj5sblBRdrPI9AOIM-2" value="&lt;div&gt;Aleurocanthus&lt;/div&gt;&lt;div&gt;spiniferus&lt;br&gt;&lt;/div&gt;" style="rounded=1;whiteSpace=wrap;html=1;fillColor=#e1d5e7;strokeColor=#9673a6;shape=ellipse;perimeter=ellipsePerimeter;" parent="1" vertex="1">
          <mxGeometry x="390" y="220" width="90" height="90" as="geometry" />
        </mxCell>
        <mxCell id="RpMTj5sblBRdrPI9AOIM-3" value="&lt;div&gt;Arbutus&lt;/div&gt;&lt;div&gt;unedo&lt;br&gt;&lt;/div&gt;" style="rounded=1;whiteSpace=wrap;html=1;fillColor=#d5e8d4;strokeColor=#82b366;shape=ellipse;perimeter=ellipsePerimeter;" parent="1" vertex="1">
          <mxGeometry x="640" y="10" width="90" height="90" as="geometry" />
        </mxCell>
        <mxCell id="RpMTj5sblBRdrPI9AOIM-18" style="edgeStyle=orthogonalEdgeStyle;rounded=0;orthogonalLoop=1;jettySize=auto;html=1;exitX=1;exitY=0.5;exitDx=0;exitDy=0;entryX=0;entryY=0.5;entryDx=0;entryDy=0;curved=1;" parent="1" source="RpMTj5sblBRdrPI9AOIM-4" target="RpMTj5sblBRdrPI9AOIM-15" edge="1">
          <mxGeometry relative="1" as="geometry" />
        </mxCell>
        <mxCell id="abd0GiXxrKFNhpff9xZX-14" value="hasSymptomMember" style="edgeLabel;html=1;align=center;verticalAlign=middle;resizable=0;points=[];" parent="RpMTj5sblBRdrPI9AOIM-18" vertex="1" connectable="0">
          <mxGeometry x="-0.0138" y="2" relative="1" as="geometry">
            <mxPoint y="-1" as="offset" />
          </mxGeometry>
        </mxCell>
        <mxCell id="RpMTj5sblBRdrPI9AOIM-56" style="edgeStyle=orthogonalEdgeStyle;rounded=0;orthogonalLoop=1;jettySize=auto;html=1;exitX=1;exitY=0.5;exitDx=0;exitDy=0;entryX=0;entryY=0.5;entryDx=0;entryDy=0;" parent="1" source="RpMTj5sblBRdrPI9AOIM-4" target="RpMTj5sblBRdrPI9AOIM-53" edge="1">
          <mxGeometry relative="1" as="geometry" />
        </mxCell>
        <mxCell id="abd0GiXxrKFNhpff9xZX-15" value="&lt;i&gt;hasSymptomMember&lt;/i&gt;" style="edgeLabel;html=1;align=center;verticalAlign=middle;resizable=0;points=[];" parent="RpMTj5sblBRdrPI9AOIM-56" vertex="1" connectable="0">
          <mxGeometry x="0.1972" y="-2" relative="1" as="geometry">
            <mxPoint y="-4" as="offset" />
          </mxGeometry>
        </mxCell>
        <mxCell id="RpMTj5sblBRdrPI9AOIM-57" style="edgeStyle=orthogonalEdgeStyle;rounded=0;orthogonalLoop=1;jettySize=auto;html=1;exitX=1;exitY=0.5;exitDx=0;exitDy=0;entryX=0;entryY=0.5;entryDx=0;entryDy=0;curved=1;" parent="1" source="RpMTj5sblBRdrPI9AOIM-4" target="RpMTj5sblBRdrPI9AOIM-49" edge="1">
          <mxGeometry relative="1" as="geometry" />
        </mxCell>
        <mxCell id="abd0GiXxrKFNhpff9xZX-16" value="&lt;i&gt;hasSymptomMember&lt;/i&gt;" style="edgeLabel;html=1;align=center;verticalAlign=middle;resizable=0;points=[];" parent="RpMTj5sblBRdrPI9AOIM-57" vertex="1" connectable="0">
          <mxGeometry x="-0.0441" y="3" relative="1" as="geometry">
            <mxPoint x="-3" y="4" as="offset" />
          </mxGeometry>
        </mxCell>
        <mxCell id="RpMTj5sblBRdrPI9AOIM-4" value="&lt;div&gt;Symptoms for&lt;br&gt;&lt;/div&gt;&lt;div&gt;Aleurocanthos&lt;/div&gt;&lt;div&gt;Spiniferus&lt;br&gt;&lt;/div&gt;" style="rounded=1;whiteSpace=wrap;html=1;fillColor=#fff2cc;strokeColor=#d6b656;shape=ellipse;perimeter=ellipsePerimeter;" parent="1" vertex="1">
          <mxGeometry x="120" y="460" width="90" height="90" as="geometry" />
        </mxCell>
        <mxCell id="RpMTj5sblBRdrPI9AOIM-43" style="edgeStyle=orthogonalEdgeStyle;rounded=0;orthogonalLoop=1;jettySize=auto;html=1;exitX=1;exitY=0.5;exitDx=0;exitDy=0;entryX=0;entryY=0.5;entryDx=0;entryDy=0;" parent="1" edge="1">
          <mxGeometry relative="1" as="geometry">
            <mxPoint x="520" y="360" as="sourcePoint" />
          </mxGeometry>
        </mxCell>
        <mxCell id="RpMTj5sblBRdrPI9AOIM-31" style="edgeStyle=orthogonalEdgeStyle;rounded=0;orthogonalLoop=1;jettySize=auto;html=1;exitX=1;exitY=0.5;exitDx=0;exitDy=0;curved=1;entryX=0;entryY=0.5;entryDx=0;entryDy=0;" parent="1" source="RpMTj5sblBRdrPI9AOIM-15" target="RpMTj5sblBRdrPI9AOIM-30" edge="1">
          <mxGeometry relative="1" as="geometry">
            <mxPoint x="630" y="420" as="targetPoint" />
          </mxGeometry>
        </mxCell>
        <mxCell id="RpMTj5sblBRdrPI9AOIM-15" value="&lt;div&gt;Blight of Whole&lt;/div&gt;&lt;div&gt;Plant&lt;/div&gt;" style="rounded=1;whiteSpace=wrap;html=1;glass=0;shadow=0;fillColor=#ffe6cc;strokeColor=#d79b00;shape=ellipse;perimeter=ellipsePerimeter;" parent="1" vertex="1">
          <mxGeometry x="390" y="350" width="90" height="90" as="geometry" />
        </mxCell>
        <mxCell id="RpMTj5sblBRdrPI9AOIM-30" value="Whole Plant" style="rounded=1;whiteSpace=wrap;html=1;fillColor=#dae8fc;strokeColor=#6c8ebf;shape=ellipse;perimeter=ellipsePerimeter;" parent="1" vertex="1">
          <mxGeometry x="640" y="350" width="90" height="90" as="geometry" />
        </mxCell>
        <mxCell id="RpMTj5sblBRdrPI9AOIM-36" value="concerns" style="text;html=1;strokeColor=none;fillColor=none;align=center;verticalAlign=middle;whiteSpace=wrap;rounded=0;fontStyle=2;fontSize=11;labelBackgroundColor=default;" parent="1" vertex="1">
          <mxGeometry x="525" y="378" width="60" height="30" as="geometry" />
        </mxCell>
        <mxCell id="RpMTj5sblBRdrPI9AOIM-48" style="edgeStyle=orthogonalEdgeStyle;rounded=0;orthogonalLoop=1;jettySize=auto;html=1;exitX=1;exitY=0.5;exitDx=0;exitDy=0;curved=1;entryX=0;entryY=0.5;entryDx=0;entryDy=0;" parent="1" source="RpMTj5sblBRdrPI9AOIM-49" target="abd0GiXxrKFNhpff9xZX-11" edge="1">
          <mxGeometry relative="1" as="geometry">
            <mxPoint x="600" y="590" as="targetPoint" />
          </mxGeometry>
        </mxCell>
        <mxCell id="RpMTj5sblBRdrPI9AOIM-49" value="&lt;div&gt;Honeydew over&lt;/div&gt;&lt;div&gt;Leaves&lt;br&gt;&lt;/div&gt;" style="rounded=1;whiteSpace=wrap;html=1;glass=0;shadow=0;fillColor=#ffe6cc;strokeColor=#d79b00;shape=ellipse;perimeter=ellipsePerimeter;" parent="1" vertex="1">
          <mxGeometry x="390" y="574.5" width="90" height="90" as="geometry" />
        </mxCell>
        <mxCell id="RpMTj5sblBRdrPI9AOIM-52" style="edgeStyle=orthogonalEdgeStyle;rounded=0;orthogonalLoop=1;jettySize=auto;html=1;exitX=1;exitY=0.5;exitDx=0;exitDy=0;curved=1;entryX=0;entryY=0.5;entryDx=0;entryDy=0;" parent="1" source="RpMTj5sblBRdrPI9AOIM-53" target="abd0GiXxrKFNhpff9xZX-10" edge="1">
          <mxGeometry relative="1" as="geometry">
            <mxPoint x="590" y="500" as="targetPoint" />
          </mxGeometry>
        </mxCell>
        <mxCell id="RpMTj5sblBRdrPI9AOIM-53" value="&lt;div&gt;Honeydew over&lt;/div&gt;&lt;div&gt;Flowers&lt;br&gt;&lt;/div&gt;" style="rounded=1;whiteSpace=wrap;html=1;glass=0;shadow=0;fillColor=#ffe6cc;strokeColor=#d79b00;shape=ellipse;perimeter=ellipsePerimeter;" parent="1" vertex="1">
          <mxGeometry x="390" y="460" width="90" height="90" as="geometry" />
        </mxCell>
        <mxCell id="RpMTj5sblBRdrPI9AOIM-59" style="edgeStyle=orthogonalEdgeStyle;rounded=0;orthogonalLoop=1;jettySize=auto;html=1;exitX=0.5;exitY=1;exitDx=0;exitDy=0;entryX=0.5;entryY=0;entryDx=0;entryDy=0;" parent="1" source="RpMTj5sblBRdrPI9AOIM-58" target="RpMTj5sblBRdrPI9AOIM-2" edge="1">
          <mxGeometry relative="1" as="geometry">
            <mxPoint x="435.0000000000002" y="160" as="sourcePoint" />
          </mxGeometry>
        </mxCell>
        <mxCell id="RpMTj5sblBRdrPI9AOIM-60" value="presenceOf" style="edgeLabel;html=1;align=center;verticalAlign=middle;resizable=0;points=[];fontStyle=2" parent="RpMTj5sblBRdrPI9AOIM-59" vertex="1" connectable="0">
          <mxGeometry x="-0.0034" y="-3" relative="1" as="geometry">
            <mxPoint as="offset" />
          </mxGeometry>
        </mxCell>
        <mxCell id="RpMTj5sblBRdrPI9AOIM-62" style="edgeStyle=orthogonalEdgeStyle;rounded=0;orthogonalLoop=1;jettySize=auto;html=1;exitX=0;exitY=0.5;exitDx=0;exitDy=0;entryX=1;entryY=0.5;entryDx=0;entryDy=0;" parent="1" source="RpMTj5sblBRdrPI9AOIM-58" target="abd0GiXxrKFNhpff9xZX-1" edge="1">
          <mxGeometry relative="1" as="geometry">
            <mxPoint x="390" y="90" as="targetPoint" />
          </mxGeometry>
        </mxCell>
        <mxCell id="RpMTj5sblBRdrPI9AOIM-63" value="presenceIn" style="edgeLabel;html=1;align=center;verticalAlign=middle;resizable=0;points=[];fontStyle=2" parent="RpMTj5sblBRdrPI9AOIM-62" vertex="1" connectable="0">
          <mxGeometry x="-0.0132" relative="1" as="geometry">
            <mxPoint x="1" y="-2" as="offset" />
          </mxGeometry>
        </mxCell>
        <mxCell id="RpMTj5sblBRdrPI9AOIM-58" value="&lt;div style=&quot;font-size: 11px;&quot;&gt;Aleurocanthus&lt;/div&gt;&lt;div style=&quot;font-size: 11px;&quot;&gt;spiniferus&lt;/div&gt;&lt;div style=&quot;font-size: 11px;&quot;&gt;Presence in&lt;/div&gt;&lt;div style=&quot;font-size: 11px;&quot;&gt;Lombardy&lt;br style=&quot;font-size: 11px;&quot;&gt;&lt;/div&gt;" style="rounded=1;whiteSpace=wrap;html=1;fillColor=#f5f5f5;fontColor=#333333;strokeColor=#666666;shape=ellipse;perimeter=ellipsePerimeter;fontSize=11;" parent="1" vertex="1">
          <mxGeometry x="390" y="10" width="90" height="90" as="geometry" />
        </mxCell>
        <mxCell id="abd0GiXxrKFNhpff9xZX-1" value="Lombardy" style="ellipse;whiteSpace=wrap;html=1;aspect=fixed;fillColor=#f8cecc;strokeColor=#b85450;" parent="1" vertex="1">
          <mxGeometry x="120" y="10" width="90" height="90" as="geometry" />
        </mxCell>
        <mxCell id="abd0GiXxrKFNhpff9xZX-6" style="edgeStyle=orthogonalEdgeStyle;rounded=0;orthogonalLoop=1;jettySize=auto;html=1;exitX=1;exitY=0.5;exitDx=0;exitDy=0;entryX=0;entryY=0.5;entryDx=0;entryDy=0;curved=1;" parent="1" source="RpMTj5sblBRdrPI9AOIM-2" target="abd0GiXxrKFNhpff9xZX-8" edge="1">
          <mxGeometry relative="1" as="geometry">
            <mxPoint x="480" y="395" as="sourcePoint" />
          </mxGeometry>
        </mxCell>
        <mxCell id="abd0GiXxrKFNhpff9xZX-12" value="&lt;i&gt;affects&lt;/i&gt;" style="edgeLabel;html=1;align=center;verticalAlign=middle;resizable=0;points=[];" parent="abd0GiXxrKFNhpff9xZX-6" vertex="1" connectable="0">
          <mxGeometry x="-0.075" y="-1" relative="1" as="geometry">
            <mxPoint x="6" y="-3" as="offset" />
          </mxGeometry>
        </mxCell>
        <mxCell id="abd0GiXxrKFNhpff9xZX-8" value="Vitis vinifera" style="rounded=1;whiteSpace=wrap;html=1;fillColor=#d5e8d4;strokeColor=#82b366;shape=ellipse;perimeter=ellipsePerimeter;" parent="1" vertex="1">
          <mxGeometry x="640" y="220" width="90" height="90" as="geometry" />
        </mxCell>
        <mxCell id="abd0GiXxrKFNhpff9xZX-9" value="" style="endArrow=none;dashed=1;html=1;dashPattern=1 3;strokeWidth=5;rounded=0;" parent="1" edge="1">
          <mxGeometry width="50" height="50" relative="1" as="geometry">
            <mxPoint x="684.38" y="180" as="sourcePoint" />
            <mxPoint x="684.38" y="130" as="targetPoint" />
          </mxGeometry>
        </mxCell>
        <mxCell id="abd0GiXxrKFNhpff9xZX-10" value="Flower" style="rounded=1;whiteSpace=wrap;html=1;fillColor=#dae8fc;strokeColor=#6c8ebf;shape=ellipse;perimeter=ellipsePerimeter;" parent="1" vertex="1">
          <mxGeometry x="640" y="460" width="90" height="90" as="geometry" />
        </mxCell>
        <mxCell id="abd0GiXxrKFNhpff9xZX-11" value="Leaf" style="rounded=1;whiteSpace=wrap;html=1;fillColor=#dae8fc;strokeColor=#6c8ebf;shape=ellipse;perimeter=ellipsePerimeter;" parent="1" vertex="1">
          <mxGeometry x="640" y="574.5" width="90" height="90" as="geometry" />
        </mxCell>
        <mxCell id="abd0GiXxrKFNhpff9xZX-17" value="concerns" style="text;html=1;strokeColor=none;fillColor=none;align=center;verticalAlign=middle;whiteSpace=wrap;rounded=0;fontStyle=2;fontSize=11;labelBackgroundColor=default;" parent="1" vertex="1">
          <mxGeometry x="525" y="489" width="60" height="30" as="geometry" />
        </mxCell>
        <mxCell id="abd0GiXxrKFNhpff9xZX-19" value="concerns" style="text;html=1;strokeColor=none;fillColor=none;align=center;verticalAlign=middle;whiteSpace=wrap;rounded=0;fontStyle=2;fontSize=11;labelBackgroundColor=default;" parent="1" vertex="1">
          <mxGeometry x="525" y="602.5" width="60" height="30" as="geometry" />
        </mxCell>
      </root>
    </mxGraphModel>
  </diagram>
</mxfile>
